<svg width="16" height="16" viewBox="0 0 16 16" fill="none" xmlns="http://www.w3.org/2000/svg">
<path fill-rule="evenodd" clip-rule="evenodd" d="M8.00016 13.3334C10.9457 13.3334 13.3335 10.9456 13.3335 8.00004C13.3335 5.05452 10.9457 2.66671 8.00016 2.66671C5.05464 2.66671 2.66683 5.05452 2.66683 8.00004C2.66683 10.9456 5.05464 13.3334 8.00016 13.3334ZM8.00016 14.6667C11.6821 14.6667 14.6668 11.6819 14.6668 8.00004C14.6668 4.31814 11.6821 1.33337 8.00016 1.33337C4.31826 1.33337 1.3335 4.31814 1.3335 8.00004C1.3335 11.6819 4.31826 14.6667 8.00016 14.6667Z" fill="#FCFCFD"/>
<path d="M7.3335 4.66667C7.3335 4.29848 7.63197 4 8.00016 4C8.36835 4 8.66683 4.29848 8.66683 4.66667C9.7714 4.66667 10.6668 5.5621 10.6668 6.66667C10.6668 7.03486 10.3684 7.33333 10.0002 7.33333C9.63197 7.33333 9.3335 7.03486 9.3335 6.66667C9.3335 6.29848 9.03502 6 8.66683 6H7.16244C6.88872 6 6.66683 6.22189 6.66683 6.49561C6.66683 6.70894 6.80334 6.89833 7.00571 6.96579L9.41625 7.7693C10.1631 8.01825 10.6668 8.71716 10.6668 9.50439C10.6668 10.5145 9.84798 11.3333 8.83788 11.3333H8.66683C8.66683 11.7015 8.36835 12 8.00016 12C7.63197 12 7.3335 11.7015 7.3335 11.3333C6.22893 11.3333 5.3335 10.4379 5.3335 9.33333C5.3335 8.96514 5.63197 8.66667 6.00016 8.66667C6.36835 8.66667 6.66683 8.96514 6.66683 9.33333C6.66683 9.70152 6.96531 10 7.3335 10H8.83788C9.1116 10 9.3335 9.77811 9.3335 9.50439C9.3335 9.29106 9.19699 9.10167 8.99461 9.03421L6.58408 8.2307C5.83724 7.98176 5.3335 7.28284 5.3335 6.49561C5.3335 5.48551 6.15234 4.66667 7.16244 4.66667H7.3335Z" fill="#FCFCFD"/>
</svg>
