<svg width="16" height="16" viewBox="0 0 16 16" fill="none" xmlns="http://www.w3.org/2000/svg">
<path fill-rule="evenodd" clip-rule="evenodd" d="M7.99434 2.78082L7.99992 2.77793L8.00574 2.78095L10.9747 4.56232L11.9999 5.18V12.5334C11.9999 12.9288 11.9989 13.1451 11.9862 13.3005L11.9847 13.3181L11.9671 13.3196C11.8116 13.3323 11.5953 13.3334 11.1999 13.3334H4.79992C4.40455 13.3334 4.18821 13.3323 4.03276 13.3196L4.01518 13.3181L4.01366 13.3005C4.00096 13.1451 3.99992 12.9288 3.99992 12.5334V5.18002L5.02136 4.56461L7.99434 2.78082ZM4.33438 3.42188L0.990274 5.42834C0.674554 5.61777 0.572177 6.02728 0.761609 6.343C0.951042 6.65872 1.36055 6.7611 1.67627 6.57166L2.66659 5.97747V12.5334C2.66659 13.2801 2.66659 13.6535 2.81191 13.9387C2.93974 14.1896 3.14372 14.3936 3.3946 14.5214C3.67981 14.6667 4.05318 14.6667 4.79992 14.6667H11.1999C11.9467 14.6667 12.32 14.6667 12.6052 14.5214C12.8561 14.3936 13.0601 14.1896 13.1879 13.9387C13.3333 13.6535 13.3333 13.2801 13.3333 12.5334V5.97745L14.3236 6.57166C14.6393 6.7611 15.0488 6.65872 15.2383 6.343C15.4277 6.02728 15.3253 5.61777 15.0096 5.42834L11.6617 3.41957L9.10086 1.87671C8.91468 1.76454 8.7718 1.67846 8.65072 1.61373C8.62246 1.59793 8.59377 1.58322 8.56471 1.56963C8.46394 1.52045 8.3766 1.48772 8.28686 1.46795C8.09783 1.42629 7.90201 1.42629 7.71298 1.46795C7.62301 1.48778 7.53544 1.52063 7.43435 1.57001C7.40581 1.58338 7.37763 1.59782 7.34988 1.61333C7.22863 1.6781 7.08555 1.76431 6.89899 1.87671L4.33438 3.42188Z" fill="#777E91"/>
<path fill-rule="evenodd" clip-rule="evenodd" d="M8.66667 13.3334V10.6667C8.66667 10.2985 8.36819 10 8 10C7.63181 10 7.33333 10.2985 7.33333 10.6667V13.3334H8.66667ZM8 8.66669C6.89543 8.66669 6 9.56212 6 10.6667V14.6667H10V10.6667C10 9.56212 9.10457 8.66669 8 8.66669Z" fill="#777E91"/>
</svg>
