<svg width="16" height="16" viewBox="0 0 16 16" fill="none" xmlns="http://www.w3.org/2000/svg">
<path fill-rule="evenodd" clip-rule="evenodd" d="M8.00016 13.3335C10.9457 13.3335 13.3335 10.9457 13.3335 8.00016C13.3335 5.05464 10.9457 2.66683 8.00016 2.66683C5.05464 2.66683 2.66683 5.05464 2.66683 8.00016C2.66683 10.9457 5.05464 13.3335 8.00016 13.3335ZM8.00016 14.6668C11.6821 14.6668 14.6668 11.6821 14.6668 8.00016C14.6668 4.31826 11.6821 1.3335 8.00016 1.3335C4.31826 1.3335 1.3335 4.31826 1.3335 8.00016C1.3335 11.6821 4.31826 14.6668 8.00016 14.6668Z" fill="#777E91"/>
<path fill-rule="evenodd" clip-rule="evenodd" d="M9.16429 12.1179C9.65676 11.133 9.99984 9.679 9.99984 8.00016C9.99984 6.32132 9.65676 4.86734 9.16429 3.8824C8.63195 2.81771 8.14321 2.66683 7.99984 2.66683C7.85647 2.66683 7.36773 2.81771 6.83538 3.8824C6.34292 4.86734 5.99984 6.32132 5.99984 8.00016C5.99984 9.679 6.34292 11.133 6.83538 12.1179C7.36773 13.1826 7.85647 13.3335 7.99984 13.3335C8.14321 13.3335 8.63195 13.1826 9.16429 12.1179ZM7.99984 14.6668C9.84079 14.6668 11.3332 11.6821 11.3332 8.00016C11.3332 4.31826 9.84079 1.3335 7.99984 1.3335C6.15889 1.3335 4.6665 4.31826 4.6665 8.00016C4.6665 11.6821 6.15889 14.6668 7.99984 14.6668Z" fill="#777E91"/>
<path fill-rule="evenodd" clip-rule="evenodd" d="M14.6339 8.66683C14.6557 8.44756 14.6668 8.22516 14.6668 8.00016C14.6668 7.77516 14.6557 7.55277 14.6339 7.3335H1.36641C1.34464 7.55277 1.3335 7.77516 1.3335 8.00016C1.3335 8.22516 1.34464 8.44756 1.36641 8.66683H14.6339Z" fill="#777E91"/>
</svg>
