<svg width="20" height="20" viewBox="0 0 20 20" fill="none" xmlns="http://www.w3.org/2000/svg">
<path fill-rule="evenodd" clip-rule="evenodd" d="M16.2527 0.478239C18.3133 -0.380341 20.3806 1.68688 19.522 3.74747L13.5985 17.9639C12.44 20.7442 8.3652 20.2743 7.87004 17.3033L7.13103 12.8692L2.69694 12.1302C-0.274043 11.635 -0.743981 7.56021 2.0363 6.40176L16.2527 0.478239ZM17.6758 2.97824C17.8475 2.56612 17.4341 2.15268 17.022 2.32439L2.80553 8.24791C1.87877 8.63406 2.03541 9.99233 3.02574 10.1574L7.45982 10.8964C8.30277 11.0369 8.96332 11.6974 9.10381 12.5404L9.84283 16.9745C10.0079 17.9648 11.3661 18.1214 11.7523 17.1947L17.6758 2.97824Z" fill="#777E91"/>
</svg>
