<svg width="24" height="24" viewBox="0 0 24 24" fill="none" xmlns="http://www.w3.org/2000/svg">
<path fill-rule="evenodd" clip-rule="evenodd" d="M18.2526 2.47824C20.3132 1.61966 22.3804 3.68688 21.5218 5.74747L15.5983 19.9639C14.4398 22.7442 10.365 22.2743 9.86986 19.3033L9.13084 14.8692L4.69676 14.1302C1.72577 13.635 1.25584 9.56021 4.03611 8.40176L18.2526 2.47824ZM19.6756 4.97824C19.8473 4.56612 19.4339 4.15268 19.0218 4.32439L4.80534 10.2479C3.87858 10.6341 4.03523 11.9923 5.02556 12.1574L9.45964 12.8964C10.3026 13.0369 10.9631 13.6974 11.1036 14.5404L11.8426 18.9745C12.0077 19.9648 13.366 20.1214 13.7521 19.1947L19.6756 4.97824Z" fill="#B1B5C4"/>
</svg>
